<?xml version="1.0" encoding="utf-8"?>
<!-- Generator: Adobe Illustrator 27.0.1, SVG Export Plug-In . SVG Version: 6.00 Build 0)  -->
<svg version="1.1" id="Layer_1" xmlns="http://www.w3.org/2000/svg" xmlns:xlink="http://www.w3.org/1999/xlink" x="0px" y="0px"
	 viewBox="0 0 153.1 98.6" style="enable-background:new 0 0 153.1 98.6;" xml:space="preserve">
<style type="text/css">
	.st0{fill:#FFFFFF;stroke:#000000;stroke-miterlimit:10;}
	.st1{fill:#1A1A1A;}
	.st2{fill:#4D64AE;}
	.st3{fill:#CA3C32;}
	.st4{fill:#9259A3;}
	.st5{fill:#399746;}
</style>
<rect x="0" y="0.2" class="st0" width="153.1" height="98.3"/>
<g id="Layer_2_00000117665627349746992350000018349262626599354802_">
	<g id="Layer_1-2">
		<g id="layer1">
			<g id="g3855">
				<g id="g945">
					<g id="g984">
						<g id="g920">
							<path id="path3804" class="st1" d="M93.1,80.9h-13V21.1l13-3.6V80.9z"/>
							<g id="g898">
								<g id="g893">
									<path id="path19" class="st2" d="M22.2,36.3c-4.9,0-8.9-4-8.9-8.9s4-8.9,8.9-8.9s8.9,4,8.9,8.9S27.1,36.3,22.2,36.3z"/>
								</g>
								<path id="path3819" class="st1" d="M29.1,80.8c0.1,3.1-0.3,6.2-1.3,9.2c-0.7,2.1-1.9,4-3.6,5.4c-1.6,1.3-3.6,2.2-5.6,2.6
									c-2.4,0.5-4.9,0.7-7.3,0.7c-1.6,0-3.2-0.1-4.8-0.5C5.2,98,4,97.5,2.9,96.9C2,96.5,1.3,95.8,0.8,95C0.3,94.4,0,93.7,0,92.9
									c0-1.3,0.6-2.6,1.6-3.4c1.2-1,2.8-1.4,4.3-1.3c0.6,0,1.3,0.1,1.9,0.3c0.5,0.2,1,0.5,1.4,0.8s0.8,0.7,1.2,1.1
									c0.3,0.4,0.6,0.8,0.8,1.1c0.4,0.6,0.9,1.1,1.5,1.5c0.3,0.2,0.7,0.4,1.1,0.4c0.4,0,0.7-0.1,1-0.3c0.3-0.3,0.6-0.6,0.7-1
									c0.2-0.6,0.4-1.3,0.4-1.9c0.1-1,0.2-2,0.2-3.1V40.5l13-3.6V80.8z"/>
							</g>
							<path id="path3802" class="st1" d="M48.1,37.9V68c0,0.8,0.2,1.6,0.5,2.4c0.3,0.7,0.8,1.3,1.4,1.8c0.6,0.5,1.3,1,2,1.3
								c0.8,0.3,1.6,0.5,2.4,0.5c0.6,0,1.1-0.2,1.6-0.4c0.6-0.3,1.2-0.7,1.8-1.1c0.7-0.5,1.3-1.1,1.8-1.7c0.6-0.6,1.1-1.4,1.6-2.1
								V37.9h13v43h-13v-4c-1.6,1.4-3.5,2.6-5.4,3.5c-1.8,0.8-3.7,1.3-5.6,1.3c-2,0-4-0.3-5.9-1c-1.7-0.7-3.4-1.6-4.8-2.9
								c-1.3-1.2-2.4-2.7-3.2-4.3c-0.8-1.7-1.2-3.5-1.2-5.3V37.9H48.1z"/>
							<g id="g905">
								<g id="g890">
									<path id="path13" class="st3" d="M105.8,36.3c-4.9,0-8.9-4-8.9-8.9s4-8.9,8.9-8.9s8.9,4,8.9,8.9
										C114.7,32.3,110.7,36.3,105.8,36.3z"/>
									<path id="path25" class="st4" d="M127.2,36.3c-4.9,0-8.9-4-8.9-8.9s4-8.9,8.9-8.9c4.9,0,8.9,4,8.9,8.9
										C136.1,32.3,132.1,36.3,127.2,36.3z"/>
									<path id="path31" class="st5" d="M116.5,17.8c-4.9,0-8.9-4-8.9-8.9s4-8.9,8.9-8.9s8.9,4,8.9,8.9S121.4,17.8,116.5,17.8
										L116.5,17.8z"/>
								</g>
								<path id="path3823" class="st1" d="M100.1,40.6l13-3.6v43.9h-13V40.6z"/>
							</g>
							<path id="path3808" class="st1" d="M140.1,58.8c-1.3,0.6-2.5,1.2-3.8,1.9c-1.2,0.7-2.4,1.4-3.5,2.3c-1,0.8-1.8,1.7-2.6,2.7
								c-0.6,0.9-1,1.9-1,2.9c0,0.8,0.1,1.6,0.3,2.3c0.2,0.7,0.5,1.3,0.9,1.9c0.3,0.5,0.7,0.9,1.2,1.3c0.4,0.3,1,0.5,1.5,0.5
								c1.1,0,2.2-0.4,3.2-1c1.2-0.8,2.5-1.6,3.6-2.5L140.1,58.8z M153.1,80.9h-13v-3.4c-0.7,0.6-1.4,1.2-2.1,1.7
								c-0.7,0.5-1.5,1-2.3,1.3c-0.9,0.4-1.9,0.7-2.8,0.9c-1.2,0.2-2.5,0.3-3.8,0.3c-1.8,0-3.6-0.3-5.3-0.8c-1.5-0.5-2.8-1.3-4-2.3
								c-1.1-1-1.9-2.2-2.5-3.5c-0.6-1.4-0.9-2.9-0.9-4.4s0.3-3,0.9-4.4c0.6-1.3,1.5-2.5,2.6-3.6s2.4-2.1,3.8-2.9
								c1.5-0.9,3.1-1.6,4.7-2.3c1.7-0.7,3.4-1.3,5.2-1.9l5.2-1.7l1.4-0.3v-4.3c0-1.2-0.1-2.3-0.4-3.5c-0.2-0.8-0.6-1.6-1.1-2.3
								c-0.5-0.6-1.1-1.1-1.8-1.3c-0.7-0.3-1.5-0.4-2.3-0.4c-0.9,0-1.8,0.1-2.6,0.4c-0.6,0.2-1.2,0.6-1.7,1.1
								c-0.4,0.5-0.7,1-0.9,1.6s-0.3,1.3-0.3,2c0,0.8-0.1,1.6-0.3,2.3c-0.1,0.7-0.5,1.4-0.9,2c-0.5,0.6-1.1,1-1.8,1.3
								c-0.9,0.4-1.9,0.6-2.9,0.5c-0.9,0-1.7-0.1-2.5-0.4c-0.7-0.3-1.3-0.7-1.9-1.2c-0.5-0.5-1-1.1-1.3-1.8s-0.4-1.4-0.4-2.2
								c0-1.5,0.5-3,1.5-4.1c1.1-1.4,2.5-2.5,4.1-3.3c1.9-1,3.9-1.7,5.9-2.1c2.3-0.5,4.7-0.8,7.1-0.8c2.6,0,5.3,0.2,7.9,0.8
								c2,0.4,3.8,1.2,5.5,2.3c1.4,0.9,2.5,2.2,3.2,3.7s1,3.2,1,4.8L153.1,80.9z"/>
						</g>
					</g>
				</g>
			</g>
		</g>
	</g>
</g>
</svg>
