<?xml version="1.0" encoding="utf-8"?>
<!-- Generator: Adobe Illustrator 27.0.1, SVG Export Plug-In . SVG Version: 6.00 Build 0)  -->
<svg version="1.1" id="Layer_1" xmlns="http://www.w3.org/2000/svg" xmlns:xlink="http://www.w3.org/1999/xlink" x="0px" y="0px"
	 viewBox="0 0 128 128" style="enable-background:new 0 0 128 128;" xml:space="preserve">
<style type="text/css">
	.st0{fill:#FFFFFF;stroke:#000000;stroke-miterlimit:10;}
	.st1{fill:url(#SVGID_1_);}
	.st2{fill:url(#SVGID_00000035507151271963404010000017582665697438803100_);}
	.st3{opacity:0.444;fill:url(#SVGID_00000040561650756296988640000009150304629656565434_);enable-background:new    ;}
</style>
<rect x="0.5" class="st0" width="127.5" height="127.6"/>
<linearGradient id="SVGID_1_" gradientUnits="userSpaceOnUse" x1="444.3714" y1="71.9732" x2="544.7784" y2="-14.4137" gradientTransform="matrix(0.563 0 0 -0.568 -239.849 56.077)">
	<stop  offset="0" style="stop-color:#5A9FD4"/>
	<stop  offset="1" style="stop-color:#306998"/>
</linearGradient>
<path class="st1" d="M63.4,12.2c-4.2,0-8.3,0.4-11.8,1C41.1,15.1,39.2,19,39.2,26.1v9.4h24.7v3.1H30c-7.2,0-13.5,4.3-15.4,12.5
	c-2.3,9.4-2.4,15.3,0,25.1c1.8,7.3,5.9,12.5,13.1,12.5h8.5V77.5c0-8.2,7.1-15.3,15.4-15.3h24.7c6.9,0,12.3-5.7,12.3-12.5V26.1
	c0-6.7-5.6-11.7-12.3-12.8C72,12.6,67.6,12.2,63.4,12.2z M50,19.8c2.5,0,4.6,2.1,4.6,4.7s-2.1,4.7-4.6,4.7c-2.6,0-4.6-2.1-4.6-4.7
	S47.5,19.8,50,19.8z"/>
<linearGradient id="SVGID_00000016062524660133272030000004233687582424967085_" gradientUnits="userSpaceOnUse" x1="583.4374" y1="-66.7982" x2="547.5834" y2="-16.0722" gradientTransform="matrix(0.563 0 0 -0.568 -239.849 56.077)">
	<stop  offset="0" style="stop-color:#FFD43B"/>
	<stop  offset="1" style="stop-color:#FFE873"/>
</linearGradient>
<path style="fill:url(#SVGID_00000016062524660133272030000004233687582424967085_);" d="M91.7,38.6v11c0,8.5-7.2,15.7-15.4,15.7
	H51.6c-6.8,0-12.3,5.8-12.3,12.5v23.5c0,6.7,5.8,10.6,12.3,12.5c7.8,2.3,15.3,2.7,24.7,0c6.2-1.8,12.3-5.4,12.3-12.5v-9.4H63.9v-3.1
	h37c7.2,0,9.9-5,12.3-12.5c2.6-7.7,2.5-15.2,0-25.1c-1.8-7.1-5.2-12.5-12.3-12.5L91.7,38.6L91.7,38.6z M77.8,98.2
	c2.6,0,4.6,2.1,4.6,4.7s-2.1,4.7-4.6,4.7c-2.6,0-4.6-2.1-4.6-4.7C73.2,100.3,75.3,98.2,77.8,98.2z"/>
<radialGradient id="SVGID_00000068663833903718932370000006174754729633226429_" cx="-1414.6554" cy="-12.422" r="26.743" gradientTransform="matrix(0 -0.24 -1.055 0 50.979 -220.104)" gradientUnits="userSpaceOnUse">
	<stop  offset="0" style="stop-color:#B8B8B8;stop-opacity:0.498"/>
	<stop  offset="1" style="stop-color:#7F7F7F;stop-opacity:0"/>
</radialGradient>
<path style="opacity:0.444;fill:url(#SVGID_00000068663833903718932370000006174754729633226429_);enable-background:new    ;" d="
	M97.3,119.6c0,3.5-14.8,6.4-33.1,6.4s-33.1-2.9-33.1-6.4s14.8-6.4,33.1-6.4S97.3,116.1,97.3,119.6z"/>
</svg>
